<svg width="310" height="311" viewBox="0 0 310 311" fill="none" xmlns="http://www.w3.org/2000/svg">
<path d="M119.208 192.84C117.914 191.444 117.095 189.53 117.133 187.374C117.227 181.859 118.888 174.905 120.679 166.936C123.567 171.795 127.098 176.227 131.226 180.154L142.251 168.515C135.526 162.111 130.931 153.817 128.771 144.298C128.444 142.85 128.543 141.329 129.134 139.97C131.013 135.583 133.157 131.347 135.625 127.451C136.353 126.288 137.106 125.134 137.878 123.979C141.202 134.941 147.545 145.298 156.354 153.643L167.379 142.004C157.907 133.032 152.142 121.167 151.344 109.386C151.223 107.523 151.845 105.683 153.098 104.288C173.551 81.6206 199.941 66.2594 220.655 85.7618L231.57 74.2393C209.228 53.2457 167.415 52.8256 108.61 75.3107C-2.91994 120.282 -15.2895 210.126 100.648 212.272C100.65 212.324 100.66 212.368 100.67 212.411L119.208 192.84ZM36.3086 170.198C19.9743 142.665 108.705 82.3653 158.169 78.6003C121.447 102.555 99.8949 151.291 100.139 195.415C68.0913 194.172 41.7407 183.31 36.3086 170.198Z" fill="#0094DB"/>
<path d="M119.208 192.84C120.672 194.056 122.627 194.771 124.778 194.617C130.28 194.223 137.134 192.188 144.995 189.969C139.986 187.348 135.37 184.063 131.226 180.154L142.251 168.515C149.009 174.883 157.539 179.022 167.161 180.663C168.625 180.911 170.138 180.73 171.463 180.066C175.741 177.953 179.856 175.582 183.613 172.907C184.734 172.118 185.846 171.302 186.957 170.47C175.831 167.744 165.146 161.971 156.336 153.626L167.361 141.987C176.833 150.96 188.993 156.074 200.799 156.234C202.667 156.253 204.47 155.532 205.795 154.205C227.322 132.555 241.232 105.372 220.637 85.7444L231.552 74.2219C253.715 95.3861 256.407 137.124 237.13 197.051C198.262 310.852 109.219 328.068 100.8 212.416C100.748 212.417 100.704 212.41 100.66 212.402L119.199 192.831L119.208 192.84ZM146.305 274.392C174.682 289.212 230.089 197.347 231.171 147.752C209.24 185.716 161.742 209.875 117.669 212.02C120.645 243.954 132.918 269.678 146.305 274.392Z" fill="#0094DB"/>
</svg>
