<svg width="582" height="177" viewBox="-174.6 -53.1 931.2 283.2" fill="none" xmlns="http://www.w3.org/2000/svg">
<path d="M195.798 141.039C190.751 141.039 186.202 140.137 182.157 138.34C178.148 136.508 174.963 133.809 172.615 130.251C170.296 126.693 169.139 122.298 169.139 117.079C169.139 112.584 169.97 108.865 171.63 105.93C173.291 102.988 175.556 100.639 178.421 98.8781C181.291 97.1167 184.523 95.7823 188.117 94.8868C191.747 93.9557 195.501 93.2796 199.374 92.8644C204.041 92.3781 207.825 91.9511 210.731 91.5656C213.637 91.1505 215.742 90.5278 217.059 89.6975C218.405 88.8316 219.081 87.5032 219.081 85.7062V85.3978C219.081 81.4895 217.925 78.4649 215.606 76.324C213.287 74.183 209.954 73.1096 205.595 73.1096C200.999 73.1096 197.351 74.1119 194.653 76.1164C191.99 78.121 190.193 80.4873 189.262 83.2213L171.731 80.7304C173.113 75.891 175.396 71.8464 178.575 68.5964C181.754 65.3108 185.644 62.8556 190.247 61.2306C194.843 59.57 199.925 58.7397 205.494 58.7397C209.331 58.7397 213.156 59.1904 216.958 60.086C220.759 60.9874 224.235 62.4701 227.384 64.5458C230.533 66.5859 233.054 69.3674 234.957 72.8961C236.891 76.4248 237.863 80.8312 237.863 86.1213V139.438H219.817V128.496H219.194C218.055 130.708 216.448 132.783 214.372 134.717C212.332 136.62 209.758 138.157 206.645 139.331C203.567 140.469 199.955 141.045 195.803 141.045L195.798 141.039ZM200.673 127.244C204.438 127.244 207.706 126.503 210.476 125.014C213.239 123.49 215.369 121.486 216.857 119.001C218.375 116.51 219.14 113.8 219.14 110.858V101.47C218.553 101.956 217.551 102.401 216.134 102.816C214.752 103.231 213.192 103.593 211.466 103.907C209.74 104.216 208.026 104.494 206.33 104.738C204.634 104.981 203.163 105.188 201.924 105.36C199.125 105.74 196.616 106.363 194.404 107.228C192.192 108.094 190.442 109.304 189.167 110.858C187.886 112.382 187.246 114.351 187.246 116.771C187.246 120.228 188.509 122.838 191.035 124.605C193.562 126.372 196.776 127.25 200.678 127.25L200.673 127.244Z" fill="#0094DB"/>
<path d="M246.516 166.365V59.7658H264.978V72.9377H266.069C267.036 71.0043 268.4 68.9464 270.167 66.7639C271.929 64.5518 274.319 62.6659 277.326 61.112C280.332 59.5226 284.169 58.7279 288.837 58.7279C294.993 58.7279 300.544 60.2995 305.484 63.4487C310.466 66.5623 314.404 71.1763 317.31 77.2967C320.251 83.3815 321.716 90.8481 321.716 99.7025C321.716 108.557 320.281 115.881 317.411 122.002C314.54 128.122 310.632 132.789 305.692 136.004C300.746 139.218 295.147 140.825 288.89 140.825C284.324 140.825 280.54 140.066 277.533 138.542C274.526 137.018 272.107 135.185 270.274 133.044C268.477 130.868 267.077 128.81 266.075 126.871H265.298L265.292 166.365H246.516ZM264.925 99.5958C264.925 104.749 265.648 109.263 267.101 113.129C268.59 117.002 270.713 120.027 273.483 122.203C276.282 124.344 279.674 125.418 283.648 125.418C287.621 125.418 291.274 124.309 294.074 122.097C296.873 119.849 298.984 116.789 300.402 112.916C301.855 109.008 302.578 104.566 302.578 99.5898C302.578 94.6141 301.872 90.2551 300.449 86.418C299.032 82.5809 296.92 79.574 294.121 77.3916C291.322 75.215 287.829 74.1238 283.642 74.1238C279.455 74.1238 276.222 75.1794 273.423 77.2848C270.624 79.3961 268.495 82.3496 267.048 86.1511C265.63 89.9526 264.919 94.4302 264.919 99.5839L264.925 99.5958Z" fill="#0094DB"/>
<path d="M327.57 139.432V59.7658H346.346V139.426H327.57V139.432ZM337.011 48.462C334.04 48.462 331.478 47.4775 329.337 45.5086C327.19 43.504 326.123 41.1021 326.123 38.2969C326.123 35.4918 327.196 33.0602 329.337 31.0853C331.484 29.0808 334.04 28.0785 337.011 28.0785C339.983 28.0785 342.58 29.0808 344.686 31.0853C346.827 33.0543 347.9 35.4621 347.9 38.2969C347.9 41.1318 346.827 43.4981 344.686 45.5086C342.574 47.4775 340.018 48.462 337.011 48.462Z" fill="#0094DB"/>
<path d="M384.99 140.831C378.733 140.831 373.129 139.224 368.183 136.01C363.237 132.795 359.334 128.128 356.464 122.007C353.593 115.887 352.158 108.456 352.158 99.7084C352.158 90.9607 353.611 83.3873 356.517 77.3025C359.459 71.1821 363.414 66.5681 368.396 63.4546C373.378 60.3054 378.923 58.7338 385.043 58.7338C389.711 58.7338 393.548 59.5285 396.555 61.1179C399.562 62.6717 401.946 64.5577 403.713 66.7698C405.474 68.9463 406.844 71.0042 407.811 72.9435H408.588V33.2144H427.412V139.432H408.95V126.882H407.811C406.844 128.816 405.445 130.874 403.612 133.056C401.78 135.197 399.36 137.03 396.353 138.554C393.346 140.078 389.563 140.837 384.996 140.837L384.99 140.831ZM390.227 125.429C394.2 125.429 397.593 124.356 400.392 122.215C403.191 120.039 405.32 117.014 406.773 113.141C408.226 109.269 408.95 104.755 408.95 99.6076C408.95 94.4598 408.22 89.9763 406.773 86.1747C405.356 82.3732 403.244 79.4138 400.445 77.3085C397.681 75.1972 394.271 74.1475 390.227 74.1475C386.182 74.1475 382.553 75.2387 379.747 77.4152C376.948 79.5918 374.837 82.5986 373.419 86.4416C372.002 90.2787 371.296 94.6733 371.296 99.6135C371.296 104.554 372.002 109.037 373.419 112.94C374.872 116.812 377.001 119.872 379.801 122.12C382.636 124.332 386.111 125.441 390.227 125.441V125.429Z" fill="#0094DB"/>
<path d="M460.119 141.039C455.072 141.039 450.523 140.137 446.479 138.34C442.47 136.508 439.285 133.809 436.936 130.251C434.617 126.693 433.461 122.298 433.461 117.079C433.461 112.584 434.291 108.865 435.952 105.93C437.612 102.988 439.878 100.639 442.748 98.8781C445.619 97.1167 448.851 95.7823 452.445 94.8868C456.074 93.9557 459.828 93.2796 463.701 92.8644C468.369 92.3781 472.152 91.9511 475.058 91.5656C477.964 91.1505 480.07 90.5278 481.386 89.6975C482.732 88.8316 483.409 87.5032 483.409 85.7062V85.3978C483.409 81.4895 482.252 78.4649 479.933 76.324C477.614 74.183 474.281 73.1096 469.922 73.1096C465.326 73.1096 461.679 74.1119 458.98 76.1164C456.318 78.121 454.521 80.4873 453.589 83.2213L436.059 80.7304C437.44 75.891 439.724 71.8464 442.902 68.5964C446.081 65.3108 449.972 62.8556 454.574 61.2306C459.17 59.57 464.253 58.7397 469.822 58.7397C473.659 58.7397 477.484 59.1904 481.285 60.086C485.087 60.9874 488.562 62.4701 491.711 64.5458C494.861 66.5859 497.381 69.3674 499.285 72.8961C501.218 76.4248 502.191 80.8312 502.191 86.1213V139.438H484.144V128.496H483.521C482.383 130.708 480.775 132.783 478.7 134.717C476.66 136.62 474.086 138.157 470.972 139.331C467.894 140.469 464.282 141.045 460.131 141.045L460.119 141.039ZM464.994 127.244C468.76 127.244 472.028 126.503 474.797 125.014C477.561 123.49 479.69 121.486 481.179 119.001C482.697 116.51 483.462 113.8 483.462 110.858V101.47C482.875 101.956 481.873 102.401 480.455 102.816C479.073 103.231 477.514 103.593 475.788 103.907C474.062 104.216 472.348 104.494 470.652 104.738C468.956 104.981 467.485 105.188 466.245 105.36C463.446 105.74 460.937 106.363 458.725 107.228C456.513 108.094 454.764 109.304 453.489 110.858C452.208 112.382 451.567 114.351 451.567 116.771C451.567 120.228 452.83 122.838 455.357 124.605C457.883 126.366 461.098 127.25 465 127.25L464.994 127.244Z" fill="#0094DB"/>
<path d="M581.53 98.9789C581.53 91.9927 580.564 85.979 578.624 80.9321C576.691 75.8495 574.022 71.6684 570.636 68.3829C567.279 65.0973 563.406 62.6776 559.018 61.1238C554.659 59.5344 550.027 58.7397 545.116 58.7397C537.507 58.7397 530.889 60.4833 525.255 63.9764C519.621 67.434 515.226 72.2734 512.083 78.5005C508.969 84.6921 507.416 91.88 507.416 100.076C507.416 108.272 508.969 115.65 512.083 121.806C515.197 127.926 519.639 132.665 525.415 136.016C531.221 139.337 538.124 140.997 546.107 140.997C552.298 140.997 557.79 140.066 562.6 138.198C567.404 136.294 571.348 133.631 574.426 130.21C577.539 126.752 579.644 122.707 580.753 118.075L563.223 116.107C562.392 118.354 561.165 120.24 559.54 121.758C557.915 123.283 555.993 124.439 553.781 125.234C551.569 125.993 549.096 126.372 546.362 126.372C542.282 126.372 538.723 125.507 535.675 123.781C532.632 122.019 530.266 119.493 528.57 116.207C526.933 112.999 526.097 109.18 526.038 104.743H581.519V98.9848L581.53 98.9789ZM526.079 92.0757C526.257 88.9562 527.058 86.068 528.475 83.417C530.1 80.4102 532.366 77.9905 535.272 76.1579C538.178 74.2898 541.546 73.3587 545.383 73.3587C548.977 73.3587 552.126 74.1712 554.825 75.7962C557.559 77.4211 559.682 79.6511 561.206 82.4859C562.724 85.2851 563.507 88.4877 563.537 92.0816H526.085L526.079 92.0757Z" fill="#0094DB"/>
<path d="M67.9197 109.872C67.1824 109.077 66.7155 107.986 66.7369 106.758C66.7909 103.615 67.7373 99.653 68.7574 95.1125C70.403 97.881 72.4147 100.406 74.7665 102.643L81.048 96.0122C77.2166 92.3635 74.5986 87.6383 73.3682 82.2144C73.1818 81.3894 73.2379 80.5231 73.5748 79.7486C74.6452 77.2495 75.8671 74.8357 77.2732 72.6157C77.6876 71.9534 78.1171 71.2956 78.5565 70.6376C80.4504 76.8835 84.0644 82.7845 89.0838 87.5391L95.3654 80.9078C89.9685 75.7956 86.684 69.0358 86.2288 62.3235C86.1603 61.2618 86.5146 60.2134 87.2287 59.4187C98.8817 46.5038 113.918 37.7517 125.72 48.8632L131.938 42.2982C119.209 30.337 95.3856 30.0977 61.8811 42.9087C-1.66365 68.5314 -8.7113 119.721 57.3449 120.943C57.3457 120.973 57.3514 120.998 57.357 121.022L67.9197 109.872ZM20.687 96.9713C11.3805 81.2842 61.9353 46.9281 90.1175 44.783C69.1952 58.4311 56.9157 86.1988 57.0549 111.339C38.7954 110.631 23.782 104.442 20.687 96.9713Z" fill="#0094DB"/>
<path d="M67.9197 109.872C68.7535 110.565 69.8677 110.972 71.0929 110.884C74.228 110.66 78.1329 109.5 82.6115 108.236C79.758 106.743 77.128 104.871 74.7665 102.643L81.048 96.0122C84.8988 99.6404 89.7586 101.999 95.2411 102.934C96.075 103.075 96.937 102.972 97.6921 102.594C100.13 101.39 102.474 100.039 104.614 98.5147C105.253 98.065 105.887 97.6005 106.52 97.1261C100.181 95.5732 94.0928 92.2839 89.0734 87.5292L95.3549 80.8979C100.752 86.0101 107.68 88.9238 114.407 89.0149C115.471 89.0259 116.498 88.6153 117.253 87.8593C129.518 75.5242 137.443 60.0364 125.709 48.8533L131.928 42.2883C144.556 54.3467 146.089 78.127 135.106 112.271C112.961 177.11 62.2283 186.918 57.4314 121.025C57.4016 121.026 57.3766 121.022 57.3517 121.017L67.9143 109.867L67.9197 109.872ZM83.3578 156.336C99.5258 164.78 131.095 112.439 131.711 84.1824C119.215 105.813 92.1532 119.578 67.0425 120.8C68.7381 138.994 75.7305 153.65 83.3578 156.336Z" fill="#0094DB"/>
</svg>
