<svg width="409" height="137" viewBox="0 0 409 137" fill="none" xmlns="http://www.w3.org/2000/svg">
<path d="M26.3986 111.861C21.4008 111.861 16.8963 110.968 12.891 109.189C8.92091 107.374 5.76717 104.702 3.44151 101.178C1.14521 97.6543 0 93.3025 0 88.1343C0 83.6827 0.822204 80.0004 2.46661 77.0933C4.11102 74.1804 6.35446 71.8547 9.19106 70.1105C12.0335 68.3662 15.2343 67.0448 18.7932 66.158C22.3874 65.236 26.105 64.5665 29.94 64.1554C34.5619 63.6738 38.3088 63.2509 41.1865 62.8692C44.0642 62.4581 46.1491 61.8414 47.4529 61.0192C48.786 60.1618 49.4555 58.8463 49.4555 57.0668V56.7614C49.4555 52.8912 48.3103 49.896 46.014 47.7759C43.7177 45.6558 40.4172 44.5928 36.1006 44.5928C31.5491 44.5928 27.9373 45.5853 25.2651 47.5703C22.6282 49.5554 20.8487 51.8987 19.9267 54.6061L2.56645 52.1394C3.93483 47.3472 6.19589 43.3419 9.34376 40.1235C12.4916 36.8699 16.3442 34.4386 20.9016 32.8294C25.4531 31.185 30.4861 30.3628 36.0008 30.3628C39.8005 30.3628 43.5885 30.8091 47.3531 31.6959C51.1176 32.5886 54.5591 34.0568 57.6776 36.1123C60.7961 38.1326 63.2921 40.887 65.1773 44.3814C67.0918 47.8757 68.055 52.2393 68.055 57.4779V110.275H50.1838V99.4397H49.5671C48.4395 101.63 46.848 103.686 44.7925 105.6C42.7722 107.485 40.2234 109.007 37.1401 110.169C34.0921 111.297 30.5155 111.867 26.4045 111.867L26.3986 111.861ZM31.2261 98.2005C34.9554 98.2005 38.1914 97.4664 40.934 95.9923C43.6708 94.4829 45.7791 92.4979 47.2532 90.0372C48.7567 87.5705 49.5143 84.8866 49.5143 81.9737V72.6769C48.9329 73.1585 47.9403 73.599 46.5367 74.0101C45.1683 74.4212 43.6238 74.7794 41.9148 75.0907C40.2058 75.3961 38.5085 75.6721 36.8288 75.9129C35.1492 76.1537 33.6927 76.3592 32.4653 76.5295C29.6933 76.9054 27.2091 77.522 25.0185 78.3795C22.8279 79.2369 21.0954 80.435 19.8327 81.9737C18.5642 83.483 17.9299 85.4328 17.9299 87.829C17.9299 91.2528 19.1808 93.8369 21.6827 95.587C24.1845 97.3372 27.3676 98.2063 31.232 98.2063L31.2261 98.2005Z" fill="#0094DB"/>
<path d="M76.6234 136.941V31.3788H94.9057V44.4225H95.9863C96.9436 42.5079 98.2944 40.4701 100.045 38.3088C101.789 36.1182 104.156 34.2507 107.133 32.712C110.111 31.138 113.91 30.3511 118.532 30.3511C124.628 30.3511 130.125 31.9074 135.018 35.0259C139.951 38.1092 143.85 42.6783 146.728 48.7391C149.641 54.7646 151.092 62.1586 151.092 70.9268C151.092 79.695 149.67 86.948 146.828 93.0089C143.985 99.0697 140.115 103.692 135.223 106.875C130.325 110.058 124.781 111.649 118.585 111.649C114.063 111.649 110.316 110.898 107.339 109.388C104.361 107.879 101.965 106.064 100.15 103.944C98.3707 101.789 96.9847 99.7509 95.9922 97.8305H95.2229L95.217 136.941H76.6234ZM94.8529 70.8211C94.8529 75.9246 95.5694 80.3939 97.0082 84.223C98.4823 88.058 100.585 91.0532 103.327 93.2085C106.099 95.3287 109.459 96.3916 113.394 96.3916C117.328 96.3916 120.946 95.2934 123.718 93.1028C126.49 90.877 128.581 87.8466 129.984 84.0116C131.423 80.1414 132.14 75.7426 132.14 70.8152C132.14 65.8879 131.441 61.5713 130.031 57.7716C128.628 53.9718 126.537 50.9943 123.765 48.833C120.993 46.6777 117.534 45.5971 113.388 45.5971C109.241 45.5971 106.041 46.6425 103.269 48.7273C100.497 50.8181 98.3883 53.7428 96.9554 57.5073C95.5517 61.2718 94.847 65.7058 94.847 70.8094L94.8529 70.8211Z" fill="#0094DB"/>
<path d="M156.888 110.269V31.3788H175.482V110.263H156.888V110.269ZM166.238 20.1851C163.296 20.1851 160.758 19.2102 158.638 17.2604C156.512 15.2754 155.455 12.8968 155.455 10.119C155.455 7.3411 156.518 4.93322 158.638 2.97755C160.764 0.992517 163.296 0 166.238 0C169.18 0 171.753 0.992517 173.837 2.97755C175.958 4.92735 177.021 7.31174 177.021 10.119C177.021 12.9262 175.958 15.2695 173.837 17.2604C171.747 19.2102 169.215 20.1851 166.238 20.1851Z" fill="#0094DB"/>
<path d="M213.75 111.655C207.554 111.655 202.004 110.064 197.106 106.881C192.208 103.698 188.343 99.0755 185.501 93.0147C182.658 86.9539 181.237 79.5952 181.237 70.9327C181.237 62.2702 182.676 54.7705 185.554 48.7449C188.467 42.6841 192.384 38.115 197.317 35.0318C202.25 31.9133 207.742 30.3569 213.802 30.3569C218.424 30.3569 222.224 31.1439 225.202 32.7178C228.179 34.2565 230.54 36.1241 232.29 38.3147C234.034 40.4701 235.391 42.5079 236.348 44.4284H237.118V5.08594H255.758V110.269H237.476V97.8422H236.348C235.391 99.7568 234.005 101.795 232.19 103.956C230.376 106.076 227.98 107.891 225.002 109.4C222.024 110.909 218.278 111.661 213.755 111.661L213.75 111.655ZM218.935 96.4034C222.87 96.4034 226.229 95.3404 229.001 93.2203C231.773 91.0649 233.882 88.0698 235.321 84.2348C236.759 80.3998 237.476 75.9305 237.476 70.8328C237.476 65.7352 236.754 61.2953 235.321 57.5308C233.917 53.7663 231.826 50.8357 229.054 48.7508C226.317 46.6601 222.941 45.6206 218.935 45.6206C214.93 45.6206 211.336 46.7012 208.558 48.8565C205.786 51.0119 203.695 53.9894 202.292 57.7951C200.888 61.5948 200.189 65.9466 200.189 70.8387C200.189 75.7308 200.888 80.1707 202.292 84.0351C203.73 87.8701 205.839 90.9005 208.611 93.1263C211.418 95.3169 214.859 96.4151 218.935 96.4151V96.4034Z" fill="#0094DB"/>
<path d="M288.147 111.861C283.149 111.861 278.645 110.968 274.64 109.189C270.67 107.374 267.516 104.702 265.19 101.178C262.894 97.6543 261.749 93.3025 261.749 88.1343C261.749 83.6827 262.571 80.0004 264.215 77.0933C265.86 74.1804 268.103 71.8547 270.946 70.1105C273.788 68.3662 276.989 67.0448 280.548 66.158C284.142 65.236 287.859 64.5665 291.694 64.1554C296.316 63.6738 300.063 63.2509 302.941 62.8692C305.819 62.4581 307.904 61.8414 309.207 61.0192C310.541 60.1618 311.21 58.8463 311.21 57.0668V56.7614C311.21 52.8912 310.065 49.896 307.769 47.7759C305.472 45.6558 302.172 44.5928 297.855 44.5928C293.304 44.5928 289.692 45.5853 287.02 47.5703C284.383 49.5554 282.603 51.8987 281.681 54.6061L264.321 52.1394C265.689 47.3472 267.95 43.3419 271.098 40.1235C274.246 36.8699 278.099 34.4386 282.656 32.8294C287.208 31.185 292.241 30.3628 297.755 30.3628C301.555 30.3628 305.343 30.8091 309.108 31.6959C312.872 32.5886 316.314 34.0568 319.432 36.1123C322.551 38.1326 325.047 40.887 326.932 44.3814C328.846 47.8757 329.81 52.2393 329.81 57.4779V110.275H311.938V99.4397H311.322C310.194 101.63 308.603 103.686 306.547 105.6C304.527 107.485 301.978 109.007 298.895 110.169C295.847 111.297 292.27 111.867 288.159 111.867L288.147 111.861ZM292.975 98.2005C296.704 98.2005 299.94 97.4664 302.683 95.9923C305.419 94.4829 307.528 92.4979 309.002 90.0372C310.505 87.5705 311.263 84.8866 311.263 81.9737V72.6769C310.682 73.1585 309.689 73.599 308.285 74.0101C306.917 74.4212 305.372 74.7794 303.663 75.0907C301.954 75.3961 300.257 75.6721 298.578 75.9129C296.898 76.1537 295.441 76.3592 294.214 76.5295C291.442 76.9054 288.958 77.522 286.767 78.3795C284.577 79.2369 282.844 80.435 281.581 81.9737C280.313 83.483 279.679 85.4328 279.679 87.829C279.679 91.2528 280.929 93.8369 283.431 95.587C285.933 97.3313 289.116 98.2063 292.981 98.2063L292.975 98.2005Z" fill="#0094DB"/>
<path d="M408.377 70.2103C408.377 63.2921 407.42 57.337 405.499 52.3391C403.585 47.3061 400.942 43.1657 397.588 39.9121C394.264 36.6585 390.429 34.2624 386.083 32.7237C381.767 31.1498 377.18 30.3628 372.317 30.3628C364.782 30.3628 358.228 32.0894 352.649 35.5485C347.07 38.9724 342.718 43.7647 339.605 49.9312C336.522 56.0625 334.983 63.1805 334.983 71.2968C334.983 79.4131 336.522 86.719 339.605 92.815C342.689 98.8759 347.087 103.568 352.808 106.886C358.557 110.175 365.393 111.82 373.298 111.82C379.429 111.82 384.868 110.898 389.631 109.048C394.388 107.162 398.293 104.526 401.341 101.137C404.424 97.713 406.509 93.7077 407.607 89.121L390.247 87.1712C389.425 89.397 388.209 91.2646 386.6 92.7681C384.991 94.2774 383.088 95.4226 380.898 96.2096C378.707 96.9613 376.258 97.3372 373.551 97.3372C369.51 97.3372 365.986 96.4797 362.968 94.7707C359.955 93.0265 357.612 90.5246 355.932 87.271C354.311 84.0938 353.483 80.3117 353.424 75.9188H408.365V70.2162L408.377 70.2103ZM353.465 63.3743C353.642 60.2851 354.434 57.425 355.838 54.7999C357.447 51.8223 359.691 49.4262 362.568 47.6115C365.446 45.7615 368.782 44.8394 372.582 44.8394C376.141 44.8394 379.259 45.644 381.931 47.2532C384.639 48.8624 386.741 51.0706 388.25 53.8778C389.754 56.6498 390.529 59.8212 390.559 63.3801H353.471L353.465 63.3743Z" fill="#0094DB"/>
</svg>
